<svg version="1.1" xmlns="http://www.w3.org/2000/svg" xmlns:xlink="http://www.w3.org/1999/xlink">
  <symbol xmlns="http://www.w3.org/2000/svg" shape-rendering="crispEdges" viewBox="0 -0.5 32 32" id="rotateFrame1">
    <path stroke="#0c0c0c" d="M13 1h6M11 2h2M19 2h2M10 3h1M21 3h1M9 4h1M22 4h1M9 5h1M22 5h1M8 6h1M23 6h1M8 7h1M23 7h1M6 9h1M25 9h1M6 10h1M25 10h1M7 11h1M24 11h1M8 12h2M22 12h2M9 13h1M22 13h1M9 14h2M21 14h2M8 15h1M23 15h1M7 16h1M24 16h1M7 17h1M13 17h6M24 17h1M7 18h1M12 18h1M19 18h1M24 18h1M8 19h1M10 19h2M20 19h2M23 19h1M6 20h3M10 20h1M21 20h1M23 20h3M5 21h1M26 21h1M3 22h5M9 22h14M24 22h5M2 23h1M8 23h3M21 23h3M29 23h1M2 24h1M8 24h1M23 24h1M29 24h1M2 25h7M23 25h7M2 26h7M23 26h7M2 27h7M23 27h7M2 28h7M23 28h7M3 29h5M9 29h14M24 29h5"></path>
    <path stroke="#3e2200" d="M13 2h6M11 3h10M10 4h12M10 5h12M9 6h14M9 7h14M9 8h14M11 9h10M12 10h8M13 18h6M12 19h2M18 19h2M11 20h2M19 20h2"></path>
    <path stroke="#306998" d="M7 8h2M23 8h2M9 9h1M22 9h1M9 10h1M22 10h1M9 20h1M22 20h1M8 21h2M22 21h2M8 22h1M23 22h1"></path>
    <path stroke="#e5b598" d="M7 9h2M10 9h1M21 9h1M23 9h2M8 10h1M10 10h2M20 10h2M23 10h1M10 11h12M11 12h10M12 13h1M19 13h1"></path>
    <path stroke="#b58a6b" d="M7 10h1M24 10h1M8 11h2M22 11h2M10 12h1M21 12h1M10 13h2M13 13h6M20 13h2M11 14h2M19 14h2"></path>
    <path stroke="#ffd43b" d="M13 14h6M9 15h2M13 15h6M21 15h2M8 16h3M21 16h3M8 17h3M21 17h3M8 18h3M21 18h3M11 23h10M10 24h2M20 24h2M10 25h12M10 26h2M20 26h2M9 27h3M20 27h3"></path>
    <path stroke="#313131" d="M11 15h2M19 15h2M11 16h2M19 16h2M11 17h2M19 17h2M11 18h1M20 18h1M10 21h12M3 24h5M9 24h1M12 24h8M22 24h1M24 24h5M12 26h8M13 27h6"></path>
    <path stroke="#957500" d="M13 16h6M9 19h1M22 19h1M9 28h14"></path>
    <path stroke="#1f1100" d="M14 19h4M13 20h6"></path>
    <path stroke="#626262" d="M6 21h2M24 21h2M3 23h5M24 23h5M9 25h1M22 25h1M9 26h1M22 26h1"></path>
  </symbol>
  <symbol xmlns="http://www.w3.org/2000/svg" shape-rendering="crispEdges" viewBox="0 -0.5 32 32" id="rotateFrame2">
    <path stroke="#0c0c0c" d="M15 1h5M13 2h2M20 2h2M11 3h2M22 3h1M10 4h1M23 4h1M9 5h1M24 5h1M9 6h1M24 6h1M7 8h1M24 8h1M7 9h1M24 9h1M7 10h1M24 10h1M8 11h2M24 11h1M9 12h1M23 12h1M9 13h3M22 13h1M8 14h1M19 14h4M7 15h1M23 15h1M6 16h1M23 16h1M6 17h1M11 17h5M24 17h1M6 18h1M10 18h1M16 18h1M24 18h1M5 19h2M8 19h2M17 19h1M23 19h1M4 20h1M8 20h1M18 20h1M20 20h7M3 21h11M19 21h1M22 21h1M27 21h1M2 22h1M7 22h2M14 22h14M1 23h1M7 23h1M19 23h3M1 24h6M21 24h1M1 25h6M21 25h6M1 26h6M21 26h6M1 27h6M21 27h6M2 28h5M8 28h6M21 28h7M14 29h7M22 29h5"></path>
    <path stroke="#3e2200" d="M15 2h5M13 3h9M11 4h12M10 5h14M10 6h14M10 7h14M10 8h12M11 9h10M12 10h6M11 18h5M10 19h1M15 19h2M9 20h1M16 20h2"></path>
    <path stroke="#306998" d="M8 7h2M24 7h1M9 8h1M22 8h2M7 19h1M19 19h1M7 20h1M19 20h1M20 21h2"></path>
    <path stroke="#b58a6b" d="M8 8h1M8 9h1M21 9h1M8 10h2M21 10h1M10 11h1M21 11h1M23 11h1M10 12h2M22 12h1M12 13h10"></path>
    <path stroke="#e5b598" d="M9 9h2M22 9h2M10 10h2M18 10h3M22 10h2M11 11h10M22 11h1M12 12h10"></path>
    <path stroke="#ffd43b" d="M9 14h1M12 14h7M8 15h2M12 15h6M21 15h2M7 16h2M21 16h2M7 17h1M21 17h3M21 18h3M9 22h5M8 23h2M14 23h5M8 24h6M18 24h2M8 25h2M14 25h6M7 26h3M18 26h2M18 27h3"></path>
    <path stroke="#313131" d="M10 14h2M10 15h2M18 15h3M9 16h3M18 16h3M9 17h2M17 17h3M9 18h1M17 18h3M18 19h1M14 21h5M2 23h5M10 23h4M27 23h1M14 24h4M20 24h1M22 24h6M10 25h4M27 25h1M11 26h7M27 26h1M14 27h3M27 27h1"></path>
    <path stroke="#957500" d="M12 16h6M8 17h1M16 17h1M20 17h1M7 18h2M20 18h1M20 19h3M7 27h7M14 28h7"></path>
    <path stroke="#1f1100" d="M11 19h4M10 20h6"></path>
    <path stroke="#626262" d="M5 20h2M23 21h4M3 22h4M22 23h5M7 24h1M7 25h1M20 25h1M20 26h1"></path>
  </symbol>
  <symbol xmlns="http://www.w3.org/2000/svg" shape-rendering="crispEdges" viewBox="0 -0.5 32 32" id="rotateFrame3">
    <path stroke="#0c0c0c" d="M13 1h5M11 2h2M18 2h2M10 3h1M20 3h2M9 4h1M22 4h1M8 5h1M23 5h1M7 6h1M23 6h1M23 7h1M7 8h1M7 9h1M23 9h1M7 10h1M23 10h1M8 11h1M23 11h1M8 12h1M22 12h1M8 13h2M21 13h1M7 14h1M20 14h1M6 15h1M21 15h1M6 16h1M22 16h1M5 17h1M9 17h4M22 17h1M5 18h1M8 18h1M13 18h1M23 18h1M5 19h1M7 19h1M14 19h1M23 19h1M6 20h1M15 20h1M19 20h1M23 20h4M3 21h8M16 21h1M20 21h4M27 21h1M2 22h1M6 22h1M11 22h7M22 22h1M28 22h1M1 23h1M16 23h11M28 23h1M1 24h5M18 24h1M24 24h3M28 24h1M1 25h5M18 25h1M25 25h2M28 25h1M1 26h5M18 26h5M25 26h3M1 27h5M18 27h5M25 27h1M2 28h4M7 28h4M18 28h5M25 28h1M11 29h6M18 29h7M19 30h5"></path>
    <path stroke="#3e2200" d="M13 2h5M11 3h9M10 4h12M9 5h14M8 6h15M9 7h14M10 8h12M10 9h11M10 10h7M9 18h4M8 19h1M12 19h2M7 20h1M13 20h2"></path>
    <path stroke="#306998" d="M7 7h2M9 8h1M22 8h2M21 9h1M21 10h1M18 20h1M18 21h1M18 22h4"></path>
    <path stroke="#b58a6b" d="M8 8h1M8 9h1M8 10h1M9 11h1M21 11h2M9 12h2M21 12h1M10 13h6M20 13h1M16 14h4"></path>
    <path stroke="#e5b598" d="M9 9h1M22 9h1M9 10h1M17 10h4M22 10h1M10 11h11M11 12h10M16 13h4"></path>
    <path stroke="#ffd43b" d="M8 14h1M11 14h5M7 15h2M11 15h6M20 15h1M7 16h2M15 16h2M20 16h2M19 17h3M20 18h3M22 19h1M7 22h4M6 23h2M11 23h5M7 24h4M15 24h3M7 25h1M11 25h6M6 26h2M15 26h2M15 27h3"></path>
    <path stroke="#313131" d="M9 14h2M9 15h2M17 15h3M9 16h2M17 16h3M8 17h1M16 17h3M16 18h3M16 19h3M8 20h2M16 20h2M11 21h5M17 21h1M23 22h4M2 23h4M8 23h3M11 24h4M23 24h1M8 25h3M19 25h4M24 25h1M9 26h6M23 26h2M11 27h3M24 27h1M24 28h1"></path>
    <path stroke="#957500" d="M11 16h4M6 17h2M13 17h3M6 18h2M14 18h2M19 18h1M6 19h1M15 19h1M19 19h3M20 20h3M19 21h1M6 27h5M11 28h7"></path>
    <path stroke="#1f1100" d="M9 19h3M10 20h3"></path>
    <path stroke="#626262" d="M24 21h3M3 22h3M27 22h1M27 23h1M6 24h1M19 24h4M27 24h1M6 25h1M17 25h1M23 25h1M27 25h1M17 26h1M23 28h1"></path>
    <path stroke="#b4b4b4" d="M23 27h1"></path>
  </symbol>
  <symbol xmlns="http://www.w3.org/2000/svg" shape-rendering="crispEdges" viewBox="0 -0.5 32 32" id="rotateFrame4">
    <path stroke="#0c0c0c" d="M12 1h6M11 2h1M18 2h2M10 3h1M20 3h1M9 4h1M21 4h1M8 5h1M22 5h1M8 6h1M22 6h1M6 7h1M6 8h1M22 8h1M6 9h1M22 9h1M6 10h1M22 10h1M7 11h1M22 11h1M7 12h1M22 12h1M8 13h1M20 13h2M7 14h1M19 14h2M6 15h1M21 15h1M5 16h1M22 16h2M5 17h1M7 17h3M24 17h1M5 18h2M10 18h2M24 18h1M5 19h1M12 19h1M18 19h1M24 19h1M4 20h1M13 20h1M20 20h1M23 20h2M2 21h8M14 21h1M21 21h2M24 21h4M1 22h1M5 22h1M10 22h6M24 22h1M28 22h1M1 23h1M14 23h1M16 23h5M24 23h1M28 23h1M1 24h4M15 24h1M20 24h2M24 24h2M28 24h1M1 25h4M15 25h1M19 25h1M22 25h2M25 25h1M28 25h1M1 26h4M15 26h5M22 26h1M25 26h2M28 26h1M2 27h3M15 27h5M22 27h1M24 27h4M6 28h4M15 28h5M22 28h2M10 29h4M15 29h7M16 30h5"></path>
    <path stroke="#3e2200" d="M12 2h6M11 3h9M10 4h11M9 5h13M9 6h13M9 7h12M9 8h11M9 9h9M9 10h8M7 18h3M6 19h1M10 19h2M5 20h1M12 20h1"></path>
    <path stroke="#b58a6b" d="M7 7h2M7 8h1M7 9h1M19 9h1M7 10h1M19 10h1M8 11h1M19 11h2M8 12h2M20 12h2M9 13h7M18 13h2M16 14h3"></path>
    <path stroke="#306998" d="M21 7h2M20 8h1M23 21h1M18 22h6M21 23h2"></path>
    <path stroke="#e5b598" d="M8 8h1M21 8h1M8 9h1M18 9h1M20 9h2M8 10h1M17 10h2M20 10h2M9 11h10M21 11h1M10 12h10M16 13h2"></path>
    <path stroke="#313131" d="M8 14h2M8 15h2M16 15h2M8 16h2M16 16h2M15 17h3M15 18h2M14 19h3M6 20h4M14 20h3M10 21h4M15 21h2M16 22h1M25 22h3M2 23h3M7 23h3M25 23h1M27 23h1M10 24h3M7 25h3M16 25h3M21 25h1M26 25h1M8 26h5M20 26h2M27 26h1M10 27h2M21 27h1M21 28h1"></path>
    <path stroke="#ffd43b" d="M10 14h6M7 15h1M10 15h6M18 15h2M6 16h1M12 16h4M18 16h3M13 17h2M18 17h4M14 18h1M20 18h4M21 19h3M17 21h1M6 22h4M17 22h1M5 23h2M10 23h4M6 24h4M13 24h2M6 25h1M10 25h4M24 25h1M5 26h2M13 26h1M23 26h2M13 27h2M23 27h1"></path>
    <path stroke="#957500" d="M20 15h1M7 16h1M10 16h2M21 16h1M6 17h1M10 17h3M22 17h2M12 18h2M17 18h3M13 19h1M17 19h1M19 19h2M17 20h3M21 20h2M18 21h3M5 27h5M10 28h5"></path>
    <path stroke="#1f1100" d="M7 19h3M10 20h2"></path>
    <path stroke="#626262" d="M2 22h3M15 23h1M26 23h1M5 24h1M16 24h4M26 24h1M5 25h1M14 25h1M20 25h1M27 25h1M14 26h1M20 28h1"></path>
    <path stroke="#002c55" d="M23 23h1M22 24h2"></path>
    <path stroke="#b4b4b4" d="M27 24h1M20 27h1"></path>
  </symbol>
  <symbol xmlns="http://www.w3.org/2000/svg" shape-rendering="crispEdges" viewBox="0 -0.5 32 32" id="rotateFrame5">
    <path stroke="#0c0c0c" d="M13 1h5M11 2h2M18 2h2M10 3h1M20 3h1M9 4h1M21 4h1M9 5h1M22 5h1M8 6h1M22 6h1M8 7h1M22 7h1M7 8h1M22 8h1M7 9h1M7 10h1M8 11h1M22 11h1M8 12h1M22 12h1M8 13h1M21 13h1M7 14h1M14 14h2M20 14h1M6 15h1M16 15h7M5 16h1M19 16h1M23 16h1M5 17h4M24 17h1M5 18h1M9 18h1M24 18h1M4 19h1M10 19h1M23 19h1M25 19h1M4 20h1M11 20h1M16 20h2M21 20h3M25 20h1M3 21h4M12 21h1M18 21h3M25 21h3M2 22h1M7 22h6M24 22h1M28 22h1M2 23h1M12 23h5M24 23h1M29 23h1M2 24h3M11 24h1M16 24h2M24 24h3M29 24h1M2 25h3M11 25h1M15 25h1M18 25h1M22 25h5M29 25h1M2 26h4M11 26h5M18 26h4M25 26h2M28 26h2M3 27h2M10 27h6M18 27h1M22 27h7M5 28h3M11 28h5M18 28h4M8 29h8M17 29h1M12 30h5"></path>
    <path stroke="#3e2200" d="M13 2h5M11 3h9M10 4h11M10 5h12M9 6h13M9 7h12M9 8h8M9 9h7M9 10h5M6 18h3M5 19h1M9 19h1M24 19h1M10 20h1M24 20h1M11 21h1"></path>
    <path stroke="#e5b598" d="M21 7h1M19 8h2M17 9h2M14 10h2M17 10h4M10 11h6M17 11h4M11 12h5M17 12h4M16 13h1M18 13h2M22 16h1M22 17h2M23 18h1"></path>
    <path stroke="#b58a6b" d="M8 8h1M17 8h2M8 9h1M16 9h1M8 10h1M16 10h1M9 11h1M16 11h1M9 12h2M16 12h1M21 12h1M9 13h7M17 13h1M20 13h1M16 14h4"></path>
    <path stroke="#306998" d="M21 8h1M19 9h4M21 10h2M21 11h1M16 22h7M17 23h6M20 24h1"></path>
    <path stroke="#313131" d="M8 14h2M7 15h2M13 15h3M7 16h2M13 16h3M12 17h3M12 18h3M12 19h3M5 20h4M12 20h2M7 21h3M13 21h1M13 22h1M3 23h2M6 23h1M25 23h3M8 24h2M28 24h1M6 25h2M12 25h3M17 25h1M6 26h4M16 26h1M27 26h1M8 27h2M16 29h1"></path>
    <path stroke="#ffd43b" d="M10 14h4M9 15h4M6 16h1M9 16h4M16 16h3M15 17h7M18 18h5M15 19h1M14 20h2M14 21h4M5 22h2M14 22h2M5 23h1M7 23h5M5 24h3M10 24h1M5 25h1M8 25h3M10 26h1M22 26h3M19 27h3"></path>
    <path stroke="#957500" d="M20 16h2M9 17h3M10 18h2M15 18h3M11 19h1M16 19h7M18 20h3M5 27h3M8 28h3"></path>
    <path stroke="#1f1100" d="M6 19h3M9 20h1M10 21h1M23 21h2M23 22h1M23 23h1M23 24h1"></path>
    <path stroke="#002c55" d="M21 21h2M18 24h2M21 24h2M19 25h3"></path>
    <path stroke="#626262" d="M3 22h2M25 22h3M28 23h1M12 24h4M27 24h1M16 25h1M27 25h1M17 26h1M16 27h2M17 28h1"></path>
    <path stroke="#b4b4b4" d="M28 25h1M16 28h1"></path>
  </symbol>
  <symbol xmlns="http://www.w3.org/2000/svg" shape-rendering="crispEdges" viewBox="0 -0.5 32 32" id="rotateFrame6">
    <path stroke="#0c0c0c" d="M12 1h6M10 2h2M18 2h1M9 3h1M19 3h1M9 4h1M20 4h1M8 5h1M21 5h1M8 6h1M21 6h1M7 7h1M21 7h1M7 8h1M22 8h1M7 9h1M20 9h1M22 9h1M7 10h1M20 10h1M23 10h1M7 11h1M23 11h1M8 12h1M22 12h1M9 13h2M13 13h2M21 13h1M8 14h1M15 14h2M20 14h1M7 15h1M18 15h5M7 16h1M18 16h1M23 16h1M4 17h3M24 17h1M3 18h1M6 18h1M23 18h1M3 19h1M7 19h1M14 19h1M22 19h4M3 20h1M8 20h1M15 20h2M20 20h2M26 20h1M3 21h3M9 21h1M17 21h3M26 21h1M2 22h1M6 22h4M26 22h3M2 23h1M9 23h4M25 23h1M28 23h2M2 24h2M8 24h1M11 24h4M22 24h1M25 24h1M27 24h1M30 24h1M2 25h2M8 25h1M10 25h1M14 25h1M20 25h2M23 25h4M30 25h1M2 26h3M8 26h3M12 26h1M14 26h6M25 26h2M30 26h1M3 27h1M7 27h4M14 27h1M20 27h7M29 27h1M4 28h2M8 28h3M14 28h6M26 28h3M6 29h5M13 29h2M9 30h5"></path>
    <path stroke="#3e2200" d="M12 2h6M10 3h9M10 4h10M9 5h12M9 6h11M8 7h9M8 8h7M8 9h5M8 10h4M4 18h2M6 19h1M7 20h1M24 20h2M8 21h1"></path>
    <path stroke="#e5b598" d="M20 6h1M17 7h4M16 8h2M21 8h1M13 9h1M15 9h1M12 10h2M15 10h3M22 10h1M11 11h3M15 11h4M22 11h1M14 12h2M17 12h3M17 13h4M21 16h2M21 17h2"></path>
    <path stroke="#b58a6b" d="M15 8h1M14 9h1M16 9h1M14 10h1M8 11h3M14 11h1M9 12h5M16 12h1M20 12h2M11 13h2M15 13h2M17 14h3M23 17h1M21 18h2"></path>
    <path stroke="#306998" d="M18 8h3M17 9h2M21 9h1M18 10h1M21 10h1M19 11h2M15 22h8M14 23h9M15 24h7"></path>
    <path stroke="#ffffff" d="M19 9h1M19 10h1"></path>
    <path stroke="#ffd43b" d="M9 14h4M9 15h3M14 15h3M9 16h3M14 16h4M20 16h1M13 17h8M13 18h1M16 18h5M12 19h2M12 20h1M11 21h2M4 22h2M11 22h1M6 23h3M4 24h2M7 24h1M6 25h2M20 26h5M15 27h5"></path>
    <path stroke="#313131" d="M13 14h2M8 15h1M12 15h2M8 16h1M12 16h2M7 17h1M11 17h2M7 18h1M11 18h2M10 19h2M4 20h2M9 20h3M6 21h1M10 21h1M10 22h1M3 23h3M6 24h1M26 24h1M29 24h1M4 25h2M9 25h1M11 25h3M28 25h1M5 26h3M11 26h1M6 27h1M12 27h1M27 27h1M11 29h1"></path>
    <path stroke="#957500" d="M17 15h1M19 16h1M8 17h3M8 18h3M14 18h2M8 19h2M15 19h7M13 20h2M17 20h3M13 21h1M12 22h1M4 27h2M6 28h2"></path>
    <path stroke="#1f1100" d="M4 19h2M6 20h1M23 20h1M7 21h1M23 21h3M23 22h3M23 23h2M23 24h2M22 25h1"></path>
    <path stroke="#002c55" d="M22 20h1M14 21h3M20 21h3M13 22h2M13 23h1M15 25h5"></path>
    <path stroke="#626262" d="M3 22h1M26 23h2M9 24h2M28 24h1M27 25h1M29 25h1M13 26h1M27 26h1M29 26h1M13 27h1M28 27h1M11 28h1M13 28h1M12 29h1"></path>
    <path stroke="#b4b4b4" d="M28 26h1M11 27h1M12 28h1"></path>
  </symbol>
  <symbol xmlns="http://www.w3.org/2000/svg" shape-rendering="crispEdges" viewBox="0 -0.5 32 32" id="rotateFrame7">
    <path stroke="#0c0c0c" d="M11 1h6M9 2h2M17 2h1M8 3h1M18 3h1M7 4h1M19 4h1M7 5h1M20 5h1M6 6h1M20 6h1M6 7h1M20 7h1M6 8h1M19 8h1M6 9h1M18 9h1M20 9h1M6 10h1M18 10h1M21 10h1M6 11h1M22 11h1M7 12h1M22 12h1M8 13h4M21 13h1M8 14h1M11 14h3M20 14h1M8 15h1M14 15h2M18 15h3M7 16h1M16 16h3M21 16h2M4 17h3M23 17h1M3 18h1M6 18h1M22 18h2M3 19h1M6 19h1M10 19h1M19 19h7M7 20h1M11 20h3M17 20h2M23 20h1M26 20h1M4 21h2M7 21h1M14 21h3M22 21h1M26 21h1M2 22h2M6 22h3M26 22h2M6 23h1M9 23h2M25 23h1M28 23h1M5 24h1M10 24h2M24 24h1M29 24h1M4 25h1M11 25h3M18 25h4M23 25h1M30 25h1M4 26h1M8 26h1M11 26h1M14 26h4M23 26h1M30 26h1M2 27h1M4 27h1M11 27h1M18 27h6M30 27h1M2 28h3M11 28h7M24 28h1M29 28h1M3 29h1M5 29h1M10 29h1M25 29h4M6 30h4"></path>
    <path stroke="#3e2200" d="M11 2h6M9 3h9M8 4h11M8 5h12M7 6h10M7 7h9M7 8h3M12 8h3M7 9h2M7 10h2M5 18h1M5 19h1M6 20h1M24 20h2"></path>
    <path stroke="#e5b598" d="M17 6h3M16 7h4M15 8h2M10 9h2M10 10h3M14 10h2M20 10h1M7 11h2M10 11h3M14 11h3M19 11h3M8 12h2M11 12h10M14 13h4M16 14h3M19 16h2M19 17h4"></path>
    <path stroke="#b58a6b" d="M10 8h2M9 9h1M12 9h1M9 10h1M13 10h1M9 11h1M13 11h1M10 12h1M21 12h1M12 13h2M18 13h3M14 14h2M19 14h1M16 15h2M19 18h3"></path>
    <path stroke="#306998" d="M17 8h2M13 9h4M19 9h1M16 10h1M19 10h1M17 11h2M18 22h3M15 23h7M13 24h9"></path>
    <path stroke="#ffffff" d="M17 9h1M17 10h1"></path>
    <path stroke="#ffd43b" d="M9 14h2M12 15h2M11 16h5M12 17h4M17 17h2M14 18h5M2 21h2M4 22h2M2 23h1M5 23h1M3 24h2M2 26h1M12 26h2M18 26h5M3 27h1M14 27h4"></path>
    <path stroke="#957500" d="M9 15h1M8 16h1M7 17h1M10 17h2M16 17h1M10 18h4M11 19h8M10 20h1M14 20h3M9 21h5M9 22h5M11 23h1M12 27h2"></path>
    <path stroke="#313131" d="M10 15h2M9 16h2M8 17h2M7 18h3M7 19h3M3 20h3M8 20h2M6 21h1M8 21h1M3 23h2M2 24h1M7 24h3M26 24h2M2 25h2M5 25h2M9 25h2M24 25h2M28 25h2M3 26h1M5 26h1M10 26h1M24 26h1M26 26h2M29 26h1M5 27h1M10 27h1M24 27h1M27 27h1M29 27h1M5 28h1M10 28h1M25 28h1M28 28h1M6 29h1M9 29h1"></path>
    <path stroke="#1f1100" d="M4 18h1M4 19h1M23 21h3M22 22h4M22 23h3M22 24h2M22 25h1"></path>
    <path stroke="#002c55" d="M19 20h4M17 21h5M14 22h4M21 22h1M12 23h3M12 24h1M14 25h4"></path>
    <path stroke="#626262" d="M7 23h2M26 23h2M6 24h1M25 24h1M28 24h1M7 25h2M26 25h2M6 26h2M9 26h1M25 26h1M28 26h1M6 27h1M8 27h2M25 27h1M28 27h1M6 28h1M9 28h1M26 28h2M7 29h2"></path>
    <path stroke="#b4b4b4" d="M7 27h1M26 27h1M7 28h2"></path>
  </symbol>
  <symbol xmlns="http://www.w3.org/2000/svg" shape-rendering="crispEdges" viewBox="0 -0.5 32 32" id="rotateFrame8">
    <path stroke="#0c0c0c" d="M10 1h6M9 2h1M16 2h1M8 3h1M17 3h1M7 4h1M18 4h1M6 5h1M18 5h1M6 6h1M19 6h1M5 7h1M19 7h1M5 8h1M19 8h1M5 9h1M17 9h1M5 10h1M17 10h1M19 10h1M6 11h1M20 11h1M7 12h1M20 12h1M8 13h1M19 13h1M9 14h3M19 14h1M8 15h1M12 15h2M18 15h1M7 16h1M14 16h4M20 16h2M6 17h2M21 17h2M5 18h1M7 18h1M17 18h1M21 18h3M5 19h1M7 19h1M9 19h1M18 19h3M22 19h3M5 20h1M7 20h1M10 20h2M16 20h2M24 20h4M5 21h1M7 21h1M12 21h4M24 21h1M27 21h2M3 22h5M24 22h3M28 22h1M3 23h2M7 23h2M23 23h2M27 23h2M2 24h2M8 24h4M23 24h1M28 24h2M2 25h1M6 25h1M9 25h1M11 25h2M17 25h3M22 25h1M28 25h2M2 26h1M9 26h1M13 26h4M20 26h3M26 26h1M29 26h1M2 27h1M9 27h1M22 27h1M29 27h1M3 28h1M8 28h1M10 28h12M23 28h1M28 28h1M4 29h4M24 29h4"></path>
    <path stroke="#3e2200" d="M10 2h6M9 3h8M8 4h10M7 5h11M7 6h9M6 7h8M6 8h4M12 8h2M6 9h3M6 10h3M6 18h1M6 19h1M6 20h1M22 20h2M6 21h1M21 21h1"></path>
    <path stroke="#e5b598" d="M16 6h3M14 7h5M14 8h2M18 8h1M10 9h2M10 10h2M13 10h2M7 11h2M10 11h6M18 11h2M8 12h2M11 12h7M9 13h2M12 13h4M14 14h4M18 16h2M18 17h3"></path>
    <path stroke="#b58a6b" d="M10 8h2M9 9h1M12 9h1M9 10h1M12 10h1M9 11h1M10 12h1M18 12h2M11 13h1M16 13h3M12 14h2M18 14h1M14 15h4M17 17h1M18 18h3"></path>
    <path stroke="#306998" d="M16 8h2M13 9h3M18 9h1M15 10h1M18 10h1M16 11h2M20 21h1M16 22h5M13 23h8M13 24h4"></path>
    <path stroke="#ffffff" d="M16 9h1M16 10h1"></path>
    <path stroke="#957500" d="M9 15h1M9 17h1M9 18h3M10 19h3M15 19h3M12 20h4M8 21h4M8 22h4M9 23h2M19 27h3"></path>
    <path stroke="#ffd43b" d="M10 15h2M9 16h5M10 17h7M12 18h5M13 19h2M10 25h1M10 26h3M17 26h3M10 27h9"></path>
    <path stroke="#313131" d="M8 16h1M8 17h1M8 18h1M8 19h1M8 20h2M3 21h2M27 22h1M5 23h2M4 24h1M7 24h1M25 24h3M3 25h1M5 25h1M8 25h1M23 25h2M27 25h1M3 26h1M6 26h1M8 26h1M23 26h1M25 26h1M28 26h1M3 27h1M8 27h1M23 27h1M26 27h1M28 27h1M4 28h1M7 28h1M24 28h1M27 28h1"></path>
    <path stroke="#002c55" d="M21 19h1M18 20h4M16 21h4M12 22h4M11 23h2M12 24h1M17 24h3M13 25h4"></path>
    <path stroke="#1f1100" d="M22 21h2M21 22h3M21 23h2M20 24h3M20 25h2"></path>
    <path stroke="#626262" d="M25 21h2M25 23h2M5 24h2M24 24h1M4 25h1M7 25h1M25 25h2M4 26h1M7 26h1M24 26h1M27 26h1M4 27h1M7 27h1M24 27h1M27 27h1M5 28h2M25 28h2"></path>
    <path stroke="#b4b4b4" d="M5 26h1M5 27h2M25 27h1"></path>
  </symbol>
  <symbol xmlns="http://www.w3.org/2000/svg" shape-rendering="crispEdges" viewBox="0 -0.5 32 32" id="rotateFrame9">
    <path stroke="#0c0c0c" d="M11 1h6M10 2h1M17 2h1M9 3h1M18 3h1M8 4h1M19 4h1M8 5h1M20 5h1M7 6h1M20 6h1M7 7h1M21 7h1M6 8h1M22 8h1M6 9h1M16 9h1M19 9h1M22 9h1M6 10h1M16 10h1M19 10h1M22 10h1M6 11h1M21 11h1M7 12h2M21 12h1M9 13h1M20 13h1M9 14h3M19 14h1M8 15h1M12 15h1M18 15h1M7 16h1M13 16h1M16 16h8M6 17h2M15 17h1M24 17h1M5 18h1M7 18h1M24 18h1M4 19h1M7 19h2M15 19h1M18 19h1M23 19h1M25 19h2M4 20h1M7 20h1M9 20h2M13 20h2M16 20h2M21 20h4M27 20h1M4 21h4M11 21h2M19 21h1M23 21h2M28 21h2M3 22h1M6 22h2M24 22h4M30 22h1M2 23h1M6 23h3M25 23h2M28 23h1M30 23h1M1 24h1M6 24h3M21 24h3M26 24h2M30 24h1M1 25h1M7 25h1M9 25h1M14 25h3M20 25h1M24 25h1M27 25h4M1 26h1M7 26h1M10 26h8M19 26h1M25 26h1M29 26h2M1 27h1M7 27h2M17 27h3M25 27h1M28 27h1M2 28h1M6 28h2M9 28h11M25 28h3M3 29h4M20 29h1M24 29h2M21 30h4"></path>
    <path stroke="#3e2200" d="M11 2h6M10 3h8M9 4h10M9 5h6M8 6h5M10 7h2M6 18h1M5 19h1M5 20h1M25 20h2M20 21h3M27 21h1M19 22h1"></path>
    <path stroke="#e5b598" d="M15 5h5M13 6h7M12 7h3M17 7h2M20 7h1M8 8h2M13 8h1M21 8h1M7 9h3M11 9h2M18 9h1M21 9h1M7 10h7M18 10h1M21 10h1M8 11h7M17 11h2M20 11h1M10 12h9M11 13h4M13 14h6M16 17h3M22 17h2M15 18h4M22 18h2"></path>
    <path stroke="#b58a6b" d="M8 7h2M7 8h1M10 8h1M10 9h1M7 11h1M9 12h1M19 12h2M10 13h1M15 13h5M12 14h1M13 15h5M16 19h2M22 19h1"></path>
    <path stroke="#306998" d="M15 7h2M19 7h1M11 8h2M14 8h1M17 8h2M20 8h1M13 9h2M17 9h1M20 9h1M14 10h1M17 10h1M20 10h1M15 11h2M19 11h1M15 21h3M14 22h5M13 23h6M10 24h4M17 24h2"></path>
    <path stroke="#ffffff" d="M15 8h2M19 8h1M15 9h1M15 10h1"></path>
    <path stroke="#957500" d="M9 15h3M8 16h1M12 16h1M8 17h1M19 17h1M8 18h1M19 18h1M9 19h2M13 19h2M20 19h2M8 20h1M11 20h2M15 20h1M18 20h1M8 21h3M8 22h3M9 23h1M25 24h1M25 25h2M8 26h1M26 26h2M9 27h1"></path>
    <path stroke="#ffd43b" d="M9 16h3M14 16h2M9 17h6M20 17h2M9 18h6M20 18h2M11 19h2M8 25h1M9 26h1M28 26h1M10 27h7M26 27h2"></path>
    <path stroke="#1f1100" d="M6 19h1M6 20h1M25 21h2M20 22h4M19 23h6M19 24h2M24 24h1M19 25h1"></path>
    <path stroke="#313131" d="M19 19h1M19 20h2M4 22h2M29 22h1M2 24h2M5 24h1M28 24h2M2 25h1M4 25h1M6 25h1M2 26h1M6 26h1M21 26h1M23 26h1M2 27h1M6 27h1M20 27h1M22 27h1M24 27h1M3 28h1M5 28h1M20 28h1M24 28h1M21 29h1M23 29h1"></path>
    <path stroke="#002c55" d="M13 21h2M18 21h1M11 22h3M10 23h3M9 24h1M14 24h3M10 25h4M17 25h2M18 26h1"></path>
    <path stroke="#626262" d="M28 22h1M3 23h3M29 23h1M4 24h1M3 25h1M5 25h1M21 25h3M3 26h1M5 26h1M20 26h1M22 26h1M24 26h1M3 27h1M5 27h1M21 27h1M23 27h1M4 28h1M21 28h1M23 28h1M22 29h1"></path>
    <path stroke="#b4b4b4" d="M27 23h1M4 26h1M4 27h1M22 28h1"></path>
  </symbol>
  <symbol xmlns="http://www.w3.org/2000/svg" shape-rendering="crispEdges" viewBox="0 -0.5 32 32" id="rotateFrame10">
    <path stroke="#0c0c0c" d="M11 1h6M10 2h1M17 2h1M9 3h1M18 3h1M8 4h1M19 4h1M7 5h1M20 5h1M6 6h1M20 6h2M6 7h1M21 7h1M5 8h1M22 8h1M5 9h1M15 9h1M18 9h1M22 9h1M5 10h1M15 10h1M18 10h1M22 10h1M5 11h1M21 11h1M6 12h2M19 12h1M21 12h1M8 13h2M21 13h1M9 14h2M20 14h1M8 15h1M11 15h2M19 15h1M21 15h1M7 16h1M16 16h3M22 16h1M7 17h1M19 17h1M23 17h1M6 18h2M19 18h1M24 18h1M5 19h1M7 19h2M12 19h1M15 19h6M25 19h1M5 20h1M7 20h1M9 20h3M13 20h2M17 20h3M21 20h4M26 20h1M3 21h4M15 21h1M19 21h2M26 21h3M2 22h1M6 22h1M14 22h1M19 22h2M25 22h1M29 22h1M1 23h1M7 23h1M14 23h1M20 23h2M25 23h2M30 23h1M1 24h1M5 24h4M14 24h4M20 24h2M25 24h2M30 24h1M1 25h1M5 25h3M9 25h1M13 25h1M18 25h1M22 25h1M25 25h6M1 26h1M5 26h4M10 26h3M18 26h1M21 26h2M26 26h5M2 27h1M4 27h4M9 27h1M12 27h1M18 27h1M27 27h3M3 28h4M10 28h3M16 28h3M23 28h3M13 29h1M15 29h4M20 29h3M14 30h4"></path>
    <path stroke="#3e2200" d="M11 2h6M10 3h8M9 4h10M8 5h6M7 6h5M9 7h2M10 8h1M6 19h1M6 20h1M16 21h3M21 21h3M15 22h1M24 22h1"></path>
    <path stroke="#e5b598" d="M14 5h6M12 6h8M11 7h3M16 7h2M20 7h1M6 8h3M11 8h2M17 8h1M21 8h1M6 9h4M6 10h7M16 10h2M21 10h1M8 11h6M16 11h2M20 11h1M8 12h1M10 12h7M20 12h1M10 13h4M18 13h2M13 14h6M13 17h3M21 17h2M13 18h3M21 18h3"></path>
    <path stroke="#b58a6b" d="M7 7h2M9 8h1M6 11h2M9 12h1M17 12h2M14 13h4M20 13h1M11 14h2M19 14h1M13 15h6M12 18h1M20 18h1M13 19h2M21 19h3"></path>
    <path stroke="#306998" d="M14 7h2M18 7h2M13 8h1M16 8h1M20 8h1M10 9h4M16 9h2M20 9h2M13 10h1M20 10h1M14 11h2M18 11h2M12 20h1M12 21h3M24 21h1M10 22h4M10 23h3M11 24h1"></path>
    <path stroke="#ffffff" d="M14 8h2M18 8h2M14 9h1M19 9h1M14 10h1M19 10h1"></path>
    <path stroke="#ffd43b" d="M9 15h2M20 15h1M9 16h4M15 16h1M20 16h2M9 17h4M9 18h3M8 25h1M9 26h1M10 27h2M23 27h3M19 28h4"></path>
    <path stroke="#957500" d="M8 16h1M8 17h1M16 17h3M20 17h1M8 18h1M16 18h3M9 19h3M24 19h1M20 20h1M20 26h1M23 26h2M19 27h4"></path>
    <path stroke="#313131" d="M13 16h2M19 16h1M25 21h1M26 22h3M2 23h5M2 24h1M4 24h1M27 24h3M3 25h2M14 25h4M4 26h1M13 26h1M14 27h1M16 27h2M13 28h1M15 28h1"></path>
    <path stroke="#002c55" d="M8 20h1M15 20h2M7 21h5M7 22h3M8 23h2M13 23h1M9 24h2M12 24h2M10 25h3"></path>
    <path stroke="#1f1100" d="M25 20h1M16 22h3M21 22h3M15 23h5M22 23h3M18 24h2M22 24h3M19 25h1"></path>
    <path stroke="#626262" d="M3 22h3M27 23h3M3 24h1M2 25h1M20 25h2M23 25h2M2 26h1M14 26h4M19 26h1M3 27h1M13 27h1M15 27h1M14 29h1"></path>
    <path stroke="#b4b4b4" d="M3 26h1M14 28h1"></path>
    <path stroke="#5b5b5b" d="M25 26h1"></path>
  </symbol>
  <symbol xmlns="http://www.w3.org/2000/svg" shape-rendering="crispEdges" viewBox="0 -0.5 32 32" id="rotateFrame11">
    <path stroke="#0c0c0c" d="M13 1h6M11 2h2M19 2h1M10 3h1M20 3h1M9 4h1M21 4h1M9 5h1M22 5h1M8 6h1M22 6h1M7 7h1M22 7h2M6 8h1M24 8h1M6 9h1M15 9h1M18 9h1M24 9h1M6 10h1M15 10h1M18 10h1M24 10h1M7 11h1M23 11h1M8 12h2M22 12h1M9 13h1M22 13h1M9 14h2M21 14h1M8 15h1M11 15h3M19 15h2M22 15h1M7 16h1M15 16h4M23 16h1M7 17h1M24 17h1M7 18h1M15 18h1M18 18h1M24 18h1M8 19h4M14 19h1M16 19h4M22 19h5M3 20h6M12 20h2M17 20h2M20 20h1M23 20h2M27 20h1M2 21h1M8 21h1M10 21h2M17 21h2M24 21h1M27 21h1M2 22h1M8 22h2M17 22h2M24 22h5M2 23h1M4 23h5M17 23h3M24 23h1M29 23h1M2 24h1M4 24h8M18 24h2M24 24h1M29 24h1M2 25h1M4 25h4M12 25h1M18 25h2M24 25h1M29 25h1M2 26h1M4 26h3M12 26h1M19 26h1M25 26h5M3 27h4M12 27h1M25 27h5M6 28h1M9 28h4M25 28h4M6 29h1M8 29h5M19 29h5M7 30h5M13 30h6"></path>
    <path stroke="#3e2200" d="M13 2h6M11 3h9M10 4h11M10 5h4M20 5h2M9 6h3M10 7h2M11 8h1M14 21h3M20 21h3M13 22h1M23 22h1"></path>
    <path stroke="#e5b598" d="M14 5h6M12 6h10M12 7h2M16 7h2M20 7h2M7 8h3M12 8h1M17 8h1M21 8h1M23 8h1M7 9h3M22 9h2M7 10h6M16 10h2M21 10h2M8 11h6M16 11h2M20 11h2M10 12h6M18 12h4M11 13h3M19 13h2M13 14h7M12 17h3M19 17h3M12 18h3M19 18h3"></path>
    <path stroke="#b58a6b" d="M8 7h2M10 8h1M10 9h1M23 10h1M22 11h1M16 12h2M10 13h1M14 13h5M21 13h1M11 14h2M20 14h1M14 15h5M11 18h1M22 18h1M12 19h2M20 19h2"></path>
    <path stroke="#306998" d="M14 7h2M18 7h2M13 8h1M16 8h1M20 8h1M22 8h1M11 9h3M16 9h2M20 9h2M13 10h1M20 10h1M14 11h2M18 11h2M19 20h1M21 20h2M12 21h2M19 21h1M23 21h1M12 22h1M19 22h1M11 23h1"></path>
    <path stroke="#ffffff" d="M14 8h2M18 8h2M14 9h1M19 9h1M14 10h1M19 10h1"></path>
    <path stroke="#957500" d="M9 15h1M8 16h1M8 17h1M15 17h4M23 17h1M8 18h3M16 18h2M23 18h1M18 26h1M18 27h2M23 27h1M14 28h1M19 28h2"></path>
    <path stroke="#ffd43b" d="M10 15h1M21 15h1M9 16h3M14 16h1M21 16h2M9 17h3M22 17h1M21 28h3M13 29h6"></path>
    <path stroke="#313131" d="M12 16h2M19 16h2M3 21h1M25 21h2M3 22h5M25 23h4M8 25h4M25 25h4M3 26h1M8 27h4M8 28h1M7 29h1"></path>
    <path stroke="#002c55" d="M15 19h1M9 20h3M14 20h3M9 21h1M10 22h2M9 23h2"></path>
    <path stroke="#626262" d="M25 20h2M4 21h4M3 23h1M25 24h4M3 25h1M20 25h4M7 26h5M14 26h4M24 26h1M13 27h1M24 27h1M7 28h1M13 28h1"></path>
    <path stroke="#1f1100" d="M14 22h3M20 22h3M12 23h5M20 23h4M12 24h6M20 24h4M13 25h5M13 26h1M20 26h4M14 27h4M20 27h3M15 28h4"></path>
    <path stroke="#b4b4b4" d="M3 24h1M7 27h1"></path>
  </symbol>
  <symbol xmlns="http://www.w3.org/2000/svg" shape-rendering="crispEdges" viewBox="0 -0.5 32 32" id="rotateFrame12">
    <path stroke="#0c0c0c" d="M13 1h6M11 2h2M19 2h2M10 3h1M21 3h1M9 4h1M22 4h1M9 5h1M22 5h1M8 6h1M23 6h1M8 7h1M23 7h1M7 8h1M24 8h1M6 9h1M14 9h1M17 9h1M25 9h1M6 10h1M14 10h1M17 10h1M25 10h1M7 11h1M24 11h1M8 12h2M22 12h2M9 13h1M22 13h1M10 14h1M21 14h1M9 15h1M12 15h1M19 15h1M22 15h1M8 16h1M13 16h6M23 16h1M8 17h1M23 17h1M8 18h1M14 18h4M23 18h1M9 19h2M13 19h1M15 19h2M18 19h1M21 19h2M3 20h5M9 20h1M11 20h2M14 20h4M19 20h2M22 20h1M24 20h5M2 21h1M8 21h1M15 21h2M23 21h1M29 21h1M2 22h1M8 22h1M15 22h2M23 22h1M29 22h1M2 23h7M15 23h2M23 23h7M2 24h2M8 24h1M15 24h2M23 24h1M28 24h2M2 25h2M8 25h2M15 25h2M22 25h2M28 25h2M2 26h2M8 26h1M15 26h2M23 26h1M28 26h2M3 27h6M11 27h1M15 27h2M20 27h1M23 27h6M3 28h6M23 28h6M4 29h4M10 29h12M24 29h4"></path>
    <path stroke="#3e2200" d="M13 2h6M11 3h10M10 4h12M10 5h3M19 5h3M9 6h2M21 6h2M9 7h1M22 7h1M11 21h3M18 21h3M10 22h1M14 22h1M17 22h1M21 22h1"></path>
    <path stroke="#e5b598" d="M13 5h6M11 6h10M10 7h3M15 7h2M19 7h3M8 8h1M11 8h1M20 8h1M23 8h1M7 9h3M22 9h3M8 10h2M11 10h1M15 10h2M20 10h1M22 10h2M9 11h4M15 11h2M19 11h4M10 12h5M17 12h5M11 13h3M18 13h3M13 14h6M11 17h3M18 17h3M11 18h3M18 18h3"></path>
    <path stroke="#306998" d="M13 7h2M17 7h2M9 8h2M12 8h1M15 8h2M19 8h1M21 8h2M11 9h2M15 9h2M19 9h2M12 10h1M19 10h1M13 11h2M17 11h2M13 20h1M18 20h1M14 21h1M17 21h1M21 21h1M9 22h1M22 22h1M9 23h1M22 23h1M9 24h1M22 24h1"></path>
    <path stroke="#ffffff" d="M13 8h2M17 8h2M13 9h1M18 9h1M13 10h1M18 10h1"></path>
    <path stroke="#b58a6b" d="M10 9h1M21 9h1M7 10h1M10 10h1M21 10h1M24 10h1M8 11h1M23 11h1M15 12h2M10 13h1M14 13h4M21 13h1M11 14h2M19 14h2M13 15h6M10 18h1M21 18h1M11 19h2M19 19h2"></path>
    <path stroke="#ffd43b" d="M10 15h1M21 15h1M9 16h2M21 16h2M9 17h1M14 17h4M22 17h1M9 27h1M22 27h1M10 28h12"></path>
    <path stroke="#313131" d="M11 15h1M20 15h1M11 16h2M19 16h2M3 22h5M24 22h5M4 24h4M24 24h4M4 26h4M24 26h4"></path>
    <path stroke="#957500" d="M10 17h1M21 17h1M9 18h1M22 18h1M14 19h1M17 19h1M9 26h1M22 26h1"></path>
    <path stroke="#002c55" d="M10 20h1M21 20h1M9 21h2M22 21h1"></path>
    <path stroke="#626262" d="M3 21h5M24 21h5M4 25h4M10 25h5M17 25h5M24 25h4M10 26h1M21 26h1M10 27h1M21 27h1"></path>
    <path stroke="#1f1100" d="M11 22h3M18 22h3M10 23h5M17 23h5M10 24h5M17 24h5M11 26h4M17 26h4M12 27h3M17 27h3"></path>
  </symbol>
</svg>